<?xml version="1.0" encoding="UTF-8"?><svg id="a" xmlns="http://www.w3.org/2000/svg" width="130.41" height="55.09" xmlns:xlink="http://www.w3.org/1999/xlink" viewBox="0 0 130.41 55.09"><defs><linearGradient id="e" x1="64.83" y1="1299.56" x2="64.83" y2="1273.75" gradientTransform="translate(0 1319.83) scale(1 -1)" gradientUnits="userSpaceOnUse"><stop offset="0" stop-color="#3ac8c2"/><stop offset="1" stop-color="#6bf7d7"/></linearGradient></defs><g><path d="M65.6,10.46c-.89-.15-1.85,1.05-2.13,2.68s.22,3.08,1.11,3.24c.89,.15,1.85-1.05,2.13-2.68,.28-1.63-.22-3.08-1.11-3.24Z" fill="#ff6c1a"/><path d="M60.42,10.89c-.09,.59,.28,1.14,.86,1.23,.59,.09,1.14-.28,1.23-.86,.09-.59-.28-1.14-.86-1.23-.59-.12-1.14,.28-1.23,.86Z" fill="#ff6c1a"/><path d="M69.46,11.35c-.59-.09-1.14,.28-1.23,.86-.09,.59,.28,1.14,.86,1.23s1.14-.28,1.23-.86c.12-.59-.28-1.14-.86-1.23Z" fill="#ff6c1a"/><path d="M51.45,4.78c.96-.96,2.25-1.36,3.52-1.11,1.23,.25,2.25,1.11,2.68,2.22,.09,.25,.34,.4,.59,.4,.06,0,.15,0,.22-.03,.31-.12,.46-.49,.37-.8-.59-1.54-1.94-2.65-3.58-2.99-1.7-.37-3.39,.15-4.66,1.45-.25,.25-.25,.65,0,.86,.22,.25,.62,.25,.86,0Z" fill="#ff6c1a"/><path d="M51.88,6.79c.34,0,.62-.28,.62-.62s-.28-.62-.62-.62c-1.39-.03-2.41,.96-2.65,2.56-.06,.34,.19,.65,.52,.71h.09c.31,0,.56-.22,.62-.52,.09-.59,.4-1.51,1.42-1.51-.03,0,0,0,0,0Z" fill="#ff6c1a"/><path d="M52.71,8.79c.25-.25,.25-.62,0-.86s-.62-.25-.86,0c-.99,.99-.99,2.37,0,3.67,.12,.15,.31,.25,.49,.25,.12,0,.28-.03,.37-.12,.28-.22,.31-.59,.12-.86-.34-.46-.83-1.36-.12-2.07Z" fill="#ff6c1a"/><path d="M78.22,6.45c-1.7-.22-3.33,.37-4.38,1.63-.22,.25-.19,.65,.06,.86,.25,.22,.65,.19,.86-.06,.77-.93,2.04-1.39,3.27-1.2,1.3,.19,2.37,.99,2.96,2.22,.09,.22,.34,.34,.56,.34,.09,0,.19-.03,.25-.06,.31-.15,.43-.52,.31-.83-.74-1.6-2.19-2.68-3.89-2.9Z" fill="#ff6c1a"/><path d="M80.32,10.43c-.31-.09-.68,.06-.77,.4-.09,.31,.06,.68,.4,.77,.96,.31,.93,1.33,.8,1.88-.06,.34,.15,.65,.49,.71h.12c.28,0,.56-.22,.62-.49,.28-1.57-.37-2.84-1.67-3.27Z" fill="#ff6c1a"/><path d="M78.74,12.4c-.31,.15-.43,.52-.28,.83,.43,.93-.31,1.57-.8,1.88-.28,.19-.37,.56-.19,.86,.12,.19,.31,.28,.52,.28,.12,0,.22-.03,.34-.09,1.36-.89,1.82-2.22,1.23-3.45-.15-.34-.52-.46-.83-.31Z" fill="#ff6c1a"/><path d="M76.68,12.99c-.31-.12-.68,.03-.8,.34-.4,.93-1.39,.83-1.94,.68h-.06c.06-1.82-.49-3.73-1.23-5.24-.31-.62-.68-1.17-1.08-1.67,1.42-1.39,3.18-2.13,5-2.16h.06c1.6,0,3.05,.59,4.1,1.63,.25,.25,.62,.25,.86,0s.25-.62,0-.86c-1.3-1.33-3.12-2-5.06-2-2.13,.03-4.19,.93-5.83,2.5-1.14-1.05-2.5-1.73-3.92-1.94-1.42-.28-2.96-.06-4.38,.52-1.02-2.04-2.65-3.58-4.66-4.32-1.85-.68-3.76-.62-5.43,.19-.31,.15-.43,.52-.28,.83s.52,.43,.83,.28c1.36-.65,2.96-.71,4.47-.15,1.73,.62,3.12,1.94,3.98,3.7-.56,.34-1.08,.74-1.57,1.2-1.42,1.36-2.44,2.96-2.93,4.53h-.06c-.59-.03-1.54-.28-1.6-1.3-.03-.34-.31-.62-.65-.59s-.62,.31-.59,.65c.06,1.36,1.08,2.28,2.62,2.44,0,.09-.03,.19-.03,.31-.09-.03-.22-.06-.31-.06-.86-.15-1.67,.06-2.22,.59-1.08,1.08-.8,3.02,.65,4.47,.86,.86,1.88,1.3,2.81,1.3,.31,0,.62-.06,.89-.15-.59,.93-1.2,2.22-1.26,3.79l1.23,.06c.09-1.76,.99-3.15,1.54-3.86,.28,.19,.59,.34,.89,.49,1.05,.52,2.19,.89,3.27,1.05,.65,.12,1.33,.19,2,.19,.46,0,.96-.03,1.45-.09,.62-.06,1.2-.19,1.76-.37l-.37-1.17c-.46,.15-.99,.25-1.51,.34-1.05,.12-2.13,.09-3.08-.09-.96-.15-1.97-.46-2.93-.96-.59-.31-1.14-.65-1.6-1.05,.06-.34,.06-.68,0-1.05-.15-.8-.59-1.6-1.23-2.25-.25-.25-.49-.43-.77-.62,0-1.82,1.05-3.95,2.87-5.68,1.63-1.57,3.98-2.34,5.98-1.97,2,.31,3.95,1.82,4.97,3.86,1.11,2.25,1.76,5.4,.19,7.49-.25,.34-.52,.65-.86,.89l.77,.96c.4-.34,.77-.71,1.08-1.11,.52-.71,.83-1.48,1.02-2.31,.31,.06,.62,.12,.89,.12,1.11,0,1.97-.56,2.37-1.54,.15-.37,0-.71-.31-.83Zm-18.2,3.21c.06,.28,.09,.8-.25,1.11h0c-.56,.56-1.82,.28-2.71-.65-.93-.93-1.2-2.16-.65-2.71,.22-.22,.52-.28,.77-.28,.12,0,.25,0,.34,.03,.56,.09,1.14,.43,1.6,.89,.46,.46,.8,1.05,.89,1.6Z" fill="#ff6c1a"/></g><path d="M74.61,20.27c0,1.14-1.36,2.1-2.99,2.1s-2.99-.93-2.99-2.1h-15.79v13.82c0,6.6,5.4,12,12,12h0c6.6,0,12-5.4,12-12v-13.82h-2.22Z" fill="url(#e)"/><path d="M114.68,17.43v12.37h11.6v-12.37h4.13v28.04h-4.13v-11.78h-11.57v11.78h-4.16V17.43h4.13Z" fill="#726363"/><path d="M35.65,17.4c1.94,0,3.76,.37,5.46,1.11,1.7,.74,3.18,1.73,4.47,2.99,1.26,1.26,2.28,2.75,2.99,4.47,.74,1.7,1.11,3.52,1.11,5.46s-.37,3.76-1.11,5.46c-.74,1.7-1.73,3.18-2.99,4.47-1.26,1.26-2.75,2.28-4.47,2.99-1.7,.74-3.52,1.11-5.46,1.11s-3.76-.37-5.46-1.11c-1.7-.74-3.18-1.73-4.47-2.99-1.26-1.26-2.28-2.75-3.02-4.47-.74-1.7-1.11-3.52-1.11-5.46s.37-3.76,1.11-5.46,1.76-3.18,3.02-4.47c1.26-1.26,2.75-2.28,4.47-2.99,1.7-.74,3.52-1.11,5.46-1.11Zm0,23.41c1.3,0,2.5-.25,3.64-.74,1.14-.49,2.16-1.17,2.99-2,.86-.83,1.54-1.85,2.04-2.99s.74-2.37,.74-3.67-.25-2.53-.74-3.67c-.49-1.14-1.17-2.13-2.04-2.99-.86-.86-1.85-1.54-2.99-2.04s-2.37-.74-3.64-.74-2.53,.25-3.67,.74-2.16,1.17-2.99,2.04c-.86,.86-1.54,1.85-2.04,2.99s-.74,2.34-.74,3.67,.25,2.53,.74,3.67c.49,1.14,1.17,2.13,2.04,2.99,.86,.83,1.85,1.51,2.99,2,1.14,.49,2.37,.74,3.67,.74Z" fill="#726363"/><path d="M17.33,22.8c-.31-1.08-.74-1.94-1.26-2.62s-1.14-1.2-1.79-1.57c-.68-.37-1.36-.65-2.04-.8s-1.39-.28-2.04-.31c-.68-.03-1.26-.06-1.76-.06H.03v4.1H6.91c.77,0,1.54,.03,2.34,.06s1.54,.22,2.19,.52,1.2,.8,1.63,1.51,.65,1.73,.65,3.08-.22,2.41-.65,3.08c-.43,.71-.96,1.2-1.63,1.51-.65,.31-1.39,.46-2.22,.49s-1.6,.03-2.37,.03H0v13.6H4.13v-9.5h4.35c.52,0,1.11-.03,1.79-.06,.65-.03,1.33-.12,2.04-.31,.68-.15,1.39-.43,2.04-.8,.68-.37,1.26-.89,1.79-1.57,.52-.68,.93-1.54,1.23-2.62,.31-1.05,.46-2.34,.46-3.89,0-1.48-.15-2.81-.49-3.89Z" fill="#726363"/><path d="M100.73,38.03l-.03,.03c-.86,.83-1.85,1.51-2.99,2-1.14,.49-2.37,.74-3.64,.74s-2.53-.25-3.67-.74c-1.14-.49-2.16-1.17-2.99-2-.86-.83-1.54-1.85-2.04-2.99s-.74-2.37-.74-3.67,.25-2.53,.74-3.67c.49-1.14,1.17-2.13,2.04-2.99,.86-.86,1.85-1.54,2.99-2.04s2.37-.74,3.67-.74,2.5,.25,3.64,.74c1.14,.49,2.16,1.17,2.99,2.04,.03,.03,.06,.06,.06,.09l4.13-2.31c-.31-.37-.62-.71-.96-1.05-1.26-1.26-2.75-2.28-4.47-2.99-1.7-.74-3.52-1.11-5.46-1.11s-3.76,.37-5.46,1.11c-1.7,.74-3.18,1.73-4.47,2.99-1.26,1.26-2.28,2.75-3.02,4.47-.74,1.7-1.11,3.52-1.11,5.46s.37,3.76,1.11,5.46,1.76,3.18,3.02,4.47c1.26,1.26,2.75,2.28,4.47,2.99,1.7,.74,3.52,1.11,5.46,1.11s3.76-.37,5.46-1.11c1.7-.74,3.18-1.73,4.47-2.99,.31-.31,.62-.65,.89-.99l-4.1-2.31Z" fill="#726363"/><path d="M64.8,44.42c-.31,0-.65,0-.99-.03-.15,0-.31-.15-.28-.34,0-.15,.15-.31,.34-.28,.59,.06,1.2,.06,1.79,0,.19-.03,.31,.12,.34,.28s-.12,.31-.28,.34c-.31,.03-.62,.03-.93,.03Zm4.44-.99c-.12,0-.22-.06-.28-.19-.06-.15,0-.34,.15-.4,.52-.25,1.05-.56,1.54-.89,.15-.09,.34-.06,.43,.06,.09,.15,.06,.34-.06,.43-.52,.37-1.08,.68-1.63,.96-.06,.03-.09,.03-.15,.03Zm-8.94,0s-.09,0-.12-.03c-.59-.28-1.11-.59-1.63-.96-.12-.09-.19-.28-.06-.43,.09-.12,.28-.19,.43-.06,.49,.34,1.02,.65,1.54,.89,.15,.06,.22,.25,.15,.4-.09,.09-.19,.19-.31,.19Zm13.14-3.55c-.06,0-.12-.03-.19-.06-.15-.09-.19-.28-.06-.43,.34-.49,.65-1.02,.89-1.54,.06-.15,.25-.22,.4-.15s.22,.25,.15,.4c-.28,.59-.59,1.14-.96,1.63-.06,.12-.15,.15-.25,.15Zm-17.3-.03c-.09,0-.19-.06-.25-.12-.37-.52-.68-1.08-.93-1.67-.06-.15,0-.34,.15-.4s.34,0,.4,.15c.25,.56,.56,1.08,.89,1.57,.09,.15,.06,.34-.09,.43-.06,.03-.12,.03-.19,.03Zm19.15-5.12s-.03,0,0,0c-.19,0-.31-.15-.31-.34,.03-.28,.03-.52,.03-.8v-1.05c0-.19,.12-.31,.31-.31s.31,.12,.31,.31v1.05c0,.28,0,.56-.03,.83-.03,.19-.15,.31-.31,.31Zm-21-.06c-.15,0-.31-.12-.31-.28-.03-.28-.03-.52-.03-.8v-1.08c0-.19,.12-.31,.31-.31s.31,.12,.31,.31v1.08c0,.25,0,.49,.03,.77,.03,.15-.09,.31-.31,.31t0,0Zm21.04-5.52c-.19,0-.31-.12-.31-.31v-1.85c0-.19,.12-.31,.31-.31s.31,.12,.31,.31v1.85c0,.19-.15,.31-.31,.31Zm-21.07-.03c-.19,0-.31-.12-.31-.31v-1.85c0-.19,.12-.31,.31-.31s.31,.12,.31,.31v1.85c0,.19-.12,.31-.31,.31Zm21.07-5.52c-.19,0-.31-.12-.31-.31v-1.85c0-.19,.12-.31,.31-.31s.31,.12,.31,.31v1.85c0,.19-.15,.31-.31,.31Zm-21.07-.03c-.19,0-.31-.12-.31-.31v-1.85c0-.19,.12-.31,.31-.31s.31,.12,.31,.31v1.85c0,.15-.12,.31-.31,.31Z" fill="#ff6c1a"/><path d="M71.62,22.98c-2.04,0-3.61-1.2-3.61-2.71s1.6-2.71,3.61-2.71,3.61,1.2,3.61,2.71-1.57,2.71-3.61,2.71Zm0-4.19c-1.3,0-2.37,.68-2.37,1.48s1.08,1.48,2.37,1.48,2.37-.68,2.37-1.48-1.08-1.48-2.37-1.48Z" fill="#ff6c1a"/><g><path d="M.96,50.25l1.48,3.95,1.48-3.95h.86v4.72h-.59v-3.92h0l-1.48,3.92h-.52l-1.48-3.95H.71v3.92H.12v-4.69H.96Z" fill="#39c7c2"/><path d="M8.36,51.67c.09-.31,.25-.56,.43-.8,.19-.22,.43-.4,.71-.56,.28-.12,.62-.22,.99-.22s.71,.06,.99,.22c.28,.12,.52,.31,.71,.56,.19,.22,.34,.49,.43,.8s.15,.62,.15,.93-.06,.62-.15,.93-.25,.56-.43,.8c-.19,.22-.43,.4-.71,.56-.28,.12-.62,.22-.99,.22s-.71-.06-.99-.22c-.28-.12-.52-.31-.71-.56-.19-.22-.34-.49-.43-.8-.09-.31-.15-.62-.15-.93,.03-.31,.06-.62,.15-.93Zm.59,1.63c.06,.22,.15,.43,.28,.62,.12,.19,.31,.34,.49,.43,.22,.12,.46,.15,.74,.15s.52-.06,.74-.15c.22-.12,.37-.25,.49-.43,.12-.19,.22-.4,.28-.62,.06-.25,.09-.46,.09-.71s-.03-.46-.09-.71c-.06-.22-.15-.43-.28-.62s-.31-.34-.49-.43c-.22-.12-.46-.15-.74-.15s-.52,.06-.74,.15c-.22,.12-.37,.25-.49,.43-.12,.19-.22,.4-.28,.62-.06,.25-.09,.46-.09,.71,0,.25,.03,.46,.09,.71Z" fill="#39c7c2"/><path d="M16.81,50.25l2.47,3.82h0v-3.82h.59v4.72h-.65l-2.47-3.79h0v3.79h-.62v-4.72h.68Z" fill="#39c7c2"/><path d="M26.8,50.25v.52h-2.62v1.51h2.44v.52h-2.44v1.63h2.65v.52h-3.3v-4.72h3.27Z" fill="#39c7c2"/><path d="M32.17,54.94h-.62v-1.91l-1.82-2.78h.74l1.42,2.25,1.39-2.25h.71l-1.79,2.78v1.91h-.03Z" fill="#39c7c2"/><path d="M42.26,50.25v4.72h-.62v-4.72h.62Z" fill="#39c7c2"/><path d="M46.6,50.25l2.47,3.82h0v-3.82h.59v4.72h-.68l-2.47-3.79h0v3.79h-.59v-4.72h.68Z" fill="#39c7c2"/><path d="M59.77,54.94h-.62v-1.91l-1.82-2.78h.74l1.42,2.25,1.39-2.25h.71l-1.79,2.78v1.91h-.03Z" fill="#39c7c2"/><path d="M64.62,51.67c.09-.31,.25-.56,.43-.8,.19-.22,.43-.4,.71-.56s.62-.22,.99-.22,.71,.06,.99,.22,.52,.31,.71,.56c.19,.22,.34,.49,.43,.8,.09,.31,.15,.62,.15,.93s-.06,.62-.15,.93-.25,.56-.43,.8c-.19,.22-.43,.4-.71,.56-.28,.12-.62,.22-.99,.22s-.71-.06-.99-.22c-.28-.12-.52-.31-.71-.56-.19-.22-.34-.49-.43-.8-.09-.31-.15-.62-.15-.93,.03-.31,.06-.62,.15-.93Zm.59,1.63c.06,.22,.15,.43,.28,.62s.31,.34,.49,.43c.22,.12,.46,.15,.74,.15s.52-.06,.74-.15c.22-.12,.37-.25,.49-.43,.12-.19,.22-.4,.28-.62,.06-.25,.09-.46,.09-.71s-.03-.46-.09-.71c-.06-.22-.15-.43-.28-.62s-.31-.34-.49-.43c-.22-.12-.46-.15-.74-.15s-.52,.06-.74,.15c-.22,.12-.37,.25-.49,.43-.12,.19-.22,.4-.28,.62-.06,.25-.09,.46-.09,.71s.03,.46,.09,.71Z" fill="#39c7c2"/><path d="M75.69,54.6c-.31,.31-.77,.46-1.39,.46s-1.08-.15-1.42-.43-.52-.74-.52-1.39v-2.99h.62v3.02c0,.43,.12,.74,.34,.96,.22,.22,.56,.34,.96,.34s.71-.12,.93-.34c.22-.22,.31-.52,.31-.96v-3.02h.62v3.02c.03,.59-.12,1.02-.43,1.33Z" fill="#39c7c2"/><path d="M82.01,50.25c.46,0,.8,.12,1.05,.34,.25,.22,.37,.52,.37,.89,0,.28-.06,.52-.19,.74s-.34,.37-.62,.43h0c.12,.03,.25,.06,.34,.12,.09,.06,.15,.12,.22,.22s.09,.19,.12,.28c.03,.09,.03,.22,.06,.34,0,.12,.03,.22,.03,.34s0,.25,.03,.34c.03,.12,.03,.22,.06,.34,.03,.09,.09,.19,.15,.28h-.71c-.03-.06-.06-.12-.09-.19,0-.09-.03-.19-.03-.28v-.34c0-.12-.03-.25-.03-.34-.03-.12-.03-.22-.06-.34-.03-.09-.06-.19-.12-.28-.06-.06-.12-.12-.22-.19-.09-.06-.22-.06-.37-.06h-1.54v2h-.62v-4.66h2.16Zm.15,2.13c.12-.03,.25-.06,.34-.12,.09-.06,.19-.15,.25-.25,.06-.12,.09-.25,.09-.43,0-.25-.06-.43-.19-.59s-.34-.22-.65-.22h-1.54v1.63h1.3c.12,0,.25,0,.4-.03Z" fill="#39c7c2"/><path d="M93.52,50.25c.46,0,.83,.12,1.08,.37s.37,.59,.37,1.02-.12,.77-.37,1.02c-.25,.25-.62,.37-1.08,.37h-1.45v1.91h-.62v-4.69h2.07Zm-.22,2.25c.37,0,.62-.06,.77-.22s.25-.37,.25-.65-.09-.49-.25-.65-.43-.22-.77-.22h-1.23v1.73h1.23Z" fill="#39c7c2"/><path d="M98.24,51.67c.09-.31,.25-.56,.43-.8,.19-.22,.43-.4,.71-.56s.62-.22,.99-.22,.71,.06,.99,.22,.52,.31,.71,.56c.19,.22,.34,.49,.43,.8s.15,.62,.15,.93-.06,.62-.15,.93-.25,.56-.43,.8c-.19,.22-.43,.4-.71,.56-.28,.12-.62,.22-.99,.22s-.71-.06-.99-.22c-.28-.12-.52-.31-.71-.56-.19-.22-.34-.49-.43-.8s-.15-.62-.15-.93,.06-.62,.15-.93Zm.59,1.63c.06,.22,.15,.43,.28,.62s.31,.34,.49,.43c.22,.12,.46,.15,.74,.15s.52-.06,.74-.15c.22-.12,.37-.25,.49-.43,.12-.19,.22-.4,.28-.62,.06-.25,.09-.46,.09-.71s-.03-.46-.09-.71c-.06-.22-.15-.43-.28-.62s-.31-.34-.49-.43c-.22-.12-.46-.15-.74-.15s-.52,.06-.74,.15c-.22,.12-.37,.25-.49,.43-.12,.19-.22,.4-.28,.62-.06,.25-.09,.46-.09,.71,0,.25,.03,.46,.09,.71Z" fill="#39c7c2"/><path d="M108.85,50.9c-.25-.15-.52-.25-.86-.25-.28,0-.52,.06-.71,.15-.19,.09-.37,.25-.49,.43-.12,.19-.22,.37-.28,.62-.06,.22-.09,.46-.09,.71,0,.28,.03,.52,.09,.77,.06,.25,.15,.46,.28,.62,.12,.19,.31,.31,.49,.43,.22,.09,.43,.15,.74,.15,.22,0,.4-.03,.56-.09s.31-.15,.4-.28c.12-.12,.22-.28,.28-.43,.06-.15,.09-.34,.12-.56h.62c-.06,.59-.28,1.05-.62,1.39s-.83,.49-1.42,.49c-.37,0-.68-.06-.96-.19-.28-.12-.49-.31-.68-.52s-.31-.49-.4-.77c-.09-.31-.12-.62-.12-.96s.06-.68,.15-.96c.09-.31,.25-.56,.43-.8,.19-.22,.43-.4,.71-.52s.59-.19,.96-.19c.25,0,.49,.03,.71,.09,.22,.06,.4,.15,.59,.28s.31,.28,.43,.49c.12,.19,.19,.4,.22,.65h-.62c-.12-.34-.28-.59-.52-.77Z" fill="#39c7c2"/><path d="M114.06,50.25v2.34l2.37-2.34h.8l-1.97,1.91,2.07,2.81h-.8l-1.7-2.37-.77,.74v1.63h-.62v-4.72h.62Z" fill="#39c7c2"/><path d="M123.71,50.25v.52h-2.62v1.51h2.44v.52h-2.44v1.63h2.65v.52h-3.27v-4.72h3.24Z" fill="#39c7c2"/><path d="M126.64,50.77v-.52h3.76v.52h-1.57v4.19h-.62v-4.19h-1.57Z" fill="#39c7c2"/></g></svg>